<mxfile host="app.diagrams.net" agent="Mozilla/5.0 (Windows NT 10.0; Win64; x64) AppleWebKit/537.36 (KHTML, like Gecko) Chrome/132.0.0.0 Safari/537.36" version="26.0.5" pages="2">
  <diagram name="UserManagementFlows" id="fzIKMLEl4B_9ZcmuR72x">
    <mxGraphModel dx="1313" dy="711" grid="1" gridSize="10" guides="1" tooltips="1" connect="1" arrows="1" fold="1" page="1" pageScale="1" pageWidth="1100" pageHeight="850" math="0" shadow="0">
      <root>
        <mxCell id="0" />
        <mxCell id="1" parent="0" />
        <mxCell id="BDya-P2dRlY2TVzf7Nlu-1" value="Client App" style="shape=umlLifeline;perimeter=lifelinePerimeter;whiteSpace=wrap;html=1;container=1;dropTarget=0;collapsible=0;recursiveResize=0;outlineConnect=0;portConstraint=eastwest;newEdgeStyle={&quot;curved&quot;:0,&quot;rounded&quot;:0};" vertex="1" parent="1">
          <mxGeometry x="160" y="80" width="80" height="520" as="geometry" />
        </mxCell>
        <mxCell id="BDya-P2dRlY2TVzf7Nlu-10" value="" style="html=1;points=[[0,0,0,0,5],[0,1,0,0,-5],[1,0,0,0,5],[1,1,0,0,-5]];perimeter=orthogonalPerimeter;outlineConnect=0;targetShapes=umlLifeline;portConstraint=eastwest;newEdgeStyle={&quot;curved&quot;:0,&quot;rounded&quot;:0};" vertex="1" parent="BDya-P2dRlY2TVzf7Nlu-1">
          <mxGeometry x="35" y="80" width="10" height="400" as="geometry" />
        </mxCell>
        <mxCell id="BDya-P2dRlY2TVzf7Nlu-2" value="User Management" style="shape=umlLifeline;perimeter=lifelinePerimeter;whiteSpace=wrap;html=1;container=1;dropTarget=0;collapsible=0;recursiveResize=0;outlineConnect=0;portConstraint=eastwest;newEdgeStyle={&quot;curved&quot;:0,&quot;rounded&quot;:0};" vertex="1" parent="1">
          <mxGeometry x="360" y="80" width="80" height="520" as="geometry" />
        </mxCell>
        <mxCell id="BDya-P2dRlY2TVzf7Nlu-13" value="" style="html=1;points=[[0,0,0,0,5],[0,1,0,0,-5],[1,0,0,0,5],[1,1,0,0,-5]];perimeter=orthogonalPerimeter;outlineConnect=0;targetShapes=umlLifeline;portConstraint=eastwest;newEdgeStyle={&quot;curved&quot;:0,&quot;rounded&quot;:0};fillColor=#dae8fc;strokeColor=#6c8ebf;" vertex="1" parent="BDya-P2dRlY2TVzf7Nlu-2">
          <mxGeometry x="35" y="80" width="10" height="40" as="geometry" />
        </mxCell>
        <mxCell id="BDya-P2dRlY2TVzf7Nlu-16" value="" style="html=1;points=[[0,0,0,0,5],[0,1,0,0,-5],[1,0,0,0,5],[1,1,0,0,-5]];perimeter=orthogonalPerimeter;outlineConnect=0;targetShapes=umlLifeline;portConstraint=eastwest;newEdgeStyle={&quot;curved&quot;:0,&quot;rounded&quot;:0};fillColor=#d5e8d4;strokeColor=#82b366;" vertex="1" parent="BDya-P2dRlY2TVzf7Nlu-2">
          <mxGeometry x="35" y="182" width="10" height="120" as="geometry" />
        </mxCell>
        <mxCell id="BDya-P2dRlY2TVzf7Nlu-28" value="" style="html=1;points=[[0,0,0,0,5],[0,1,0,0,-5],[1,0,0,0,5],[1,1,0,0,-5]];perimeter=orthogonalPerimeter;outlineConnect=0;targetShapes=umlLifeline;portConstraint=eastwest;newEdgeStyle={&quot;curved&quot;:0,&quot;rounded&quot;:0};fillColor=#f8cecc;strokeColor=#b85450;" vertex="1" parent="BDya-P2dRlY2TVzf7Nlu-2">
          <mxGeometry x="35" y="342" width="10" height="120" as="geometry" />
        </mxCell>
        <mxCell id="BDya-P2dRlY2TVzf7Nlu-3" value="Database Layer" style="shape=umlLifeline;perimeter=lifelinePerimeter;whiteSpace=wrap;html=1;container=1;dropTarget=0;collapsible=0;recursiveResize=0;outlineConnect=0;portConstraint=eastwest;newEdgeStyle={&quot;curved&quot;:0,&quot;rounded&quot;:0};" vertex="1" parent="1">
          <mxGeometry x="760" y="80" width="80" height="520" as="geometry" />
        </mxCell>
        <mxCell id="BDya-P2dRlY2TVzf7Nlu-23" value="" style="html=1;points=[[0,0,0,0,5],[0,1,0,0,-5],[1,0,0,0,5],[1,1,0,0,-5]];perimeter=orthogonalPerimeter;outlineConnect=0;targetShapes=umlLifeline;portConstraint=eastwest;newEdgeStyle={&quot;curved&quot;:0,&quot;rounded&quot;:0};" vertex="1" parent="BDya-P2dRlY2TVzf7Nlu-3">
          <mxGeometry x="35" y="80" width="10" height="400" as="geometry" />
        </mxCell>
        <mxCell id="BDya-P2dRlY2TVzf7Nlu-5" value="Database" style="shape=umlLifeline;perimeter=lifelinePerimeter;whiteSpace=wrap;html=1;container=1;dropTarget=0;collapsible=0;recursiveResize=0;outlineConnect=0;portConstraint=eastwest;newEdgeStyle={&quot;curved&quot;:0,&quot;rounded&quot;:0};participant=umlEntity;size=80;" vertex="1" parent="1">
          <mxGeometry x="960" y="40" width="80" height="560" as="geometry" />
        </mxCell>
        <mxCell id="BDya-P2dRlY2TVzf7Nlu-6" value="Session Management" style="shape=umlLifeline;perimeter=lifelinePerimeter;whiteSpace=wrap;html=1;container=1;dropTarget=0;collapsible=0;recursiveResize=0;outlineConnect=0;portConstraint=eastwest;newEdgeStyle={&quot;curved&quot;:0,&quot;rounded&quot;:0};" vertex="1" parent="1">
          <mxGeometry x="560" y="80" width="80" height="520" as="geometry" />
        </mxCell>
        <mxCell id="BDya-P2dRlY2TVzf7Nlu-19" value="" style="html=1;points=[[0,0,0,0,5],[0,1,0,0,-5],[1,0,0,0,5],[1,1,0,0,-5]];perimeter=orthogonalPerimeter;outlineConnect=0;targetShapes=umlLifeline;portConstraint=eastwest;newEdgeStyle={&quot;curved&quot;:0,&quot;rounded&quot;:0};fillColor=#d5e8d4;strokeColor=#82b366;" vertex="1" parent="BDya-P2dRlY2TVzf7Nlu-6">
          <mxGeometry x="35" y="202" width="10" height="80" as="geometry" />
        </mxCell>
        <mxCell id="BDya-P2dRlY2TVzf7Nlu-31" value="" style="html=1;points=[[0,0,0,0,5],[0,1,0,0,-5],[1,0,0,0,5],[1,1,0,0,-5]];perimeter=orthogonalPerimeter;outlineConnect=0;targetShapes=umlLifeline;portConstraint=eastwest;newEdgeStyle={&quot;curved&quot;:0,&quot;rounded&quot;:0};fillColor=#f8cecc;strokeColor=#b85450;" vertex="1" parent="BDya-P2dRlY2TVzf7Nlu-6">
          <mxGeometry x="35" y="367" width="10" height="80" as="geometry" />
        </mxCell>
        <mxCell id="BDya-P2dRlY2TVzf7Nlu-14" value="signup()" style="html=1;verticalAlign=bottom;endArrow=block;curved=0;rounded=0;entryX=0;entryY=0;entryDx=0;entryDy=5;" edge="1" target="BDya-P2dRlY2TVzf7Nlu-13" parent="1" source="BDya-P2dRlY2TVzf7Nlu-1">
          <mxGeometry relative="1" as="geometry">
            <mxPoint x="325" y="165" as="sourcePoint" />
          </mxGeometry>
        </mxCell>
        <mxCell id="BDya-P2dRlY2TVzf7Nlu-15" value="return" style="html=1;verticalAlign=bottom;endArrow=open;dashed=1;endSize=8;curved=0;rounded=0;exitX=0;exitY=1;exitDx=0;exitDy=-5;" edge="1" source="BDya-P2dRlY2TVzf7Nlu-13" parent="1" target="BDya-P2dRlY2TVzf7Nlu-1">
          <mxGeometry relative="1" as="geometry">
            <mxPoint x="325" y="235" as="targetPoint" />
          </mxGeometry>
        </mxCell>
        <mxCell id="BDya-P2dRlY2TVzf7Nlu-17" value="loginUser()" style="html=1;verticalAlign=bottom;endArrow=block;curved=0;rounded=0;entryX=0;entryY=0;entryDx=0;entryDy=5;" edge="1" target="BDya-P2dRlY2TVzf7Nlu-16" parent="1">
          <mxGeometry relative="1" as="geometry">
            <mxPoint x="199.25000000000023" y="267.0000000000002" as="sourcePoint" />
          </mxGeometry>
        </mxCell>
        <mxCell id="BDya-P2dRlY2TVzf7Nlu-18" value="return" style="html=1;verticalAlign=bottom;endArrow=open;dashed=1;endSize=8;curved=0;rounded=0;exitX=0;exitY=1;exitDx=0;exitDy=-5;" edge="1" source="BDya-P2dRlY2TVzf7Nlu-16" parent="1">
          <mxGeometry relative="1" as="geometry">
            <mxPoint x="199.25000000000023" y="376.9999999999998" as="targetPoint" />
          </mxGeometry>
        </mxCell>
        <mxCell id="BDya-P2dRlY2TVzf7Nlu-20" value="createToken()" style="html=1;verticalAlign=bottom;endArrow=block;curved=0;rounded=0;entryX=0;entryY=0;entryDx=0;entryDy=5;" edge="1" target="BDya-P2dRlY2TVzf7Nlu-19" parent="1">
          <mxGeometry relative="1" as="geometry">
            <mxPoint x="399.2500000000002" y="287" as="sourcePoint" />
          </mxGeometry>
        </mxCell>
        <mxCell id="BDya-P2dRlY2TVzf7Nlu-21" value="return" style="html=1;verticalAlign=bottom;endArrow=open;dashed=1;endSize=8;curved=0;rounded=0;exitX=0;exitY=1;exitDx=0;exitDy=-5;" edge="1" source="BDya-P2dRlY2TVzf7Nlu-19" parent="1">
          <mxGeometry relative="1" as="geometry">
            <mxPoint x="399.2500000000002" y="357" as="targetPoint" />
          </mxGeometry>
        </mxCell>
        <mxCell id="BDya-P2dRlY2TVzf7Nlu-24" value="createToken" style="html=1;verticalAlign=bottom;endArrow=block;curved=0;rounded=0;" edge="1" parent="1" source="BDya-P2dRlY2TVzf7Nlu-19">
          <mxGeometry width="80" relative="1" as="geometry">
            <mxPoint x="670" y="302" as="sourcePoint" />
            <mxPoint x="799.5" y="302" as="targetPoint" />
            <Array as="points">
              <mxPoint x="700" y="302" />
            </Array>
          </mxGeometry>
        </mxCell>
        <mxCell id="BDya-P2dRlY2TVzf7Nlu-26" value="storeToken" style="html=1;verticalAlign=bottom;endArrow=block;curved=0;rounded=0;" edge="1" parent="1">
          <mxGeometry width="80" relative="1" as="geometry">
            <mxPoint x="799.25" y="322" as="sourcePoint" />
            <mxPoint x="999.5" y="322" as="targetPoint" />
            <Array as="points">
              <mxPoint x="890" y="322" />
            </Array>
          </mxGeometry>
        </mxCell>
        <mxCell id="BDya-P2dRlY2TVzf7Nlu-29" value="logoutUser()" style="html=1;verticalAlign=bottom;endArrow=block;curved=0;rounded=0;entryX=0;entryY=0;entryDx=0;entryDy=5;" edge="1" target="BDya-P2dRlY2TVzf7Nlu-28" parent="1">
          <mxGeometry relative="1" as="geometry">
            <mxPoint x="199.25000000000023" y="427.0000000000002" as="sourcePoint" />
          </mxGeometry>
        </mxCell>
        <mxCell id="BDya-P2dRlY2TVzf7Nlu-30" value="return" style="html=1;verticalAlign=bottom;endArrow=open;dashed=1;endSize=8;curved=0;rounded=0;exitX=0;exitY=1;exitDx=0;exitDy=-5;" edge="1" source="BDya-P2dRlY2TVzf7Nlu-28" parent="1">
          <mxGeometry relative="1" as="geometry">
            <mxPoint x="199.25000000000023" y="536.9999999999998" as="targetPoint" />
          </mxGeometry>
        </mxCell>
        <mxCell id="BDya-P2dRlY2TVzf7Nlu-32" value="revokeToken()" style="html=1;verticalAlign=bottom;endArrow=block;curved=0;rounded=0;entryX=0;entryY=0;entryDx=0;entryDy=5;" edge="1" target="BDya-P2dRlY2TVzf7Nlu-31" parent="1">
          <mxGeometry relative="1" as="geometry">
            <mxPoint x="399.2500000000002" y="452" as="sourcePoint" />
          </mxGeometry>
        </mxCell>
        <mxCell id="BDya-P2dRlY2TVzf7Nlu-33" value="return" style="html=1;verticalAlign=bottom;endArrow=open;dashed=1;endSize=8;curved=0;rounded=0;exitX=0;exitY=1;exitDx=0;exitDy=-5;" edge="1" source="BDya-P2dRlY2TVzf7Nlu-31" parent="1" target="BDya-P2dRlY2TVzf7Nlu-2">
          <mxGeometry relative="1" as="geometry">
            <mxPoint x="525" y="522" as="targetPoint" />
          </mxGeometry>
        </mxCell>
        <mxCell id="BDya-P2dRlY2TVzf7Nlu-34" value="revokeToken" style="html=1;verticalAlign=bottom;endArrow=block;curved=0;rounded=0;" edge="1" parent="1" source="BDya-P2dRlY2TVzf7Nlu-31">
          <mxGeometry width="80" relative="1" as="geometry">
            <mxPoint x="730" y="472" as="sourcePoint" />
            <mxPoint x="800" y="472" as="targetPoint" />
          </mxGeometry>
        </mxCell>
        <mxCell id="BDya-P2dRlY2TVzf7Nlu-35" value="invalidateToken" style="html=1;verticalAlign=bottom;endArrow=block;curved=0;rounded=0;" edge="1" parent="1">
          <mxGeometry width="80" relative="1" as="geometry">
            <mxPoint x="805" y="502" as="sourcePoint" />
            <mxPoint x="999.5" y="502" as="targetPoint" />
            <Array as="points">
              <mxPoint x="900" y="502" />
            </Array>
          </mxGeometry>
        </mxCell>
        <mxCell id="BDya-P2dRlY2TVzf7Nlu-37" value="createUserAccount()" style="html=1;verticalAlign=bottom;endArrow=block;curved=0;rounded=0;" edge="1" parent="1" target="BDya-P2dRlY2TVzf7Nlu-3">
          <mxGeometry width="80" relative="1" as="geometry">
            <mxPoint x="400" y="170" as="sourcePoint" />
            <mxPoint x="560" y="180" as="targetPoint" />
            <Array as="points">
              <mxPoint x="600" y="170" />
            </Array>
          </mxGeometry>
        </mxCell>
        <mxCell id="BDya-P2dRlY2TVzf7Nlu-38" value="createUserAccount" style="html=1;verticalAlign=bottom;endArrow=block;curved=0;rounded=0;" edge="1" parent="1" source="BDya-P2dRlY2TVzf7Nlu-3" target="BDya-P2dRlY2TVzf7Nlu-5">
          <mxGeometry width="80" relative="1" as="geometry">
            <mxPoint x="860" y="190" as="sourcePoint" />
            <mxPoint x="940" y="190" as="targetPoint" />
            <Array as="points">
              <mxPoint x="900" y="180" />
            </Array>
          </mxGeometry>
        </mxCell>
        <mxCell id="BDya-P2dRlY2TVzf7Nlu-39" value="" style="line;strokeWidth=2;fillColor=none;align=left;verticalAlign=middle;spacingTop=-1;spacingLeft=3;spacingRight=3;rotatable=0;labelPosition=right;points=[];portConstraint=eastwest;strokeColor=inherit;" vertex="1" parent="1">
          <mxGeometry x="120" y="236" width="960" height="8" as="geometry" />
        </mxCell>
        <mxCell id="BDya-P2dRlY2TVzf7Nlu-40" value="" style="line;strokeWidth=2;fillColor=none;align=left;verticalAlign=middle;spacingTop=-1;spacingLeft=3;spacingRight=3;rotatable=0;labelPosition=right;points=[];portConstraint=eastwest;strokeColor=inherit;" vertex="1" parent="1">
          <mxGeometry x="120" y="396" width="960" height="8" as="geometry" />
        </mxCell>
        <mxCell id="VYbqo2OC7HcJvt_hJsJr-1" value="SIGN UP" style="html=1;whiteSpace=wrap;fillColor=#dae8fc;strokeColor=#6c8ebf;fontStyle=1" vertex="1" parent="1">
          <mxGeometry x="40" y="160" width="120" height="40" as="geometry" />
        </mxCell>
        <mxCell id="VYbqo2OC7HcJvt_hJsJr-2" value="LOG IN" style="html=1;whiteSpace=wrap;fillColor=#d5e8d4;strokeColor=#82b366;fontStyle=1" vertex="1" parent="1">
          <mxGeometry x="40" y="302" width="120" height="40" as="geometry" />
        </mxCell>
        <mxCell id="VYbqo2OC7HcJvt_hJsJr-3" value="LOG OUT" style="html=1;whiteSpace=wrap;fillColor=#f8cecc;strokeColor=#b85450;fontStyle=1" vertex="1" parent="1">
          <mxGeometry x="40" y="462" width="120" height="40" as="geometry" />
        </mxCell>
      </root>
    </mxGraphModel>
  </diagram>
  <diagram id="ax7jRQGFg8dxRKLAMkpS" name="FindAndMakeBooking">
    <mxGraphModel dx="1500" dy="813" grid="1" gridSize="10" guides="1" tooltips="1" connect="1" arrows="1" fold="1" page="1" pageScale="1" pageWidth="850" pageHeight="1100" math="0" shadow="0">
      <root>
        <mxCell id="0" />
        <mxCell id="1" parent="0" />
        <mxCell id="O9LADpIzNfBdCZO4euZ6-1" value="Client App" style="shape=umlLifeline;perimeter=lifelinePerimeter;whiteSpace=wrap;html=1;container=1;dropTarget=0;collapsible=0;recursiveResize=0;outlineConnect=0;portConstraint=eastwest;newEdgeStyle={&quot;curved&quot;:0,&quot;rounded&quot;:0};" vertex="1" parent="1">
          <mxGeometry x="80" y="80" width="80" height="920" as="geometry" />
        </mxCell>
        <mxCell id="eJAYvT8_J5vv1c-CHtFm-7" value="" style="html=1;points=[[0,0,0,0,5],[0,1,0,0,-5],[1,0,0,0,5],[1,1,0,0,-5]];perimeter=orthogonalPerimeter;outlineConnect=0;targetShapes=umlLifeline;portConstraint=eastwest;newEdgeStyle={&quot;curved&quot;:0,&quot;rounded&quot;:0};fillColor=#f5f5f5;fontColor=#333333;strokeColor=#666666;" vertex="1" parent="O9LADpIzNfBdCZO4euZ6-1">
          <mxGeometry x="35" y="80" width="10" height="800" as="geometry" />
        </mxCell>
        <mxCell id="O9LADpIzNfBdCZO4euZ6-2" value="Venue&lt;br&gt;Management" style="shape=umlLifeline;perimeter=lifelinePerimeter;whiteSpace=wrap;html=1;container=1;dropTarget=0;collapsible=0;recursiveResize=0;outlineConnect=0;portConstraint=eastwest;newEdgeStyle={&quot;curved&quot;:0,&quot;rounded&quot;:0};" vertex="1" parent="1">
          <mxGeometry x="240" y="80" width="80" height="920" as="geometry" />
        </mxCell>
        <mxCell id="eJAYvT8_J5vv1c-CHtFm-4" value="" style="html=1;points=[[0,0,0,0,5],[0,1,0,0,-5],[1,0,0,0,5],[1,1,0,0,-5]];perimeter=orthogonalPerimeter;outlineConnect=0;targetShapes=umlLifeline;portConstraint=eastwest;newEdgeStyle={&quot;curved&quot;:0,&quot;rounded&quot;:0};fillColor=#dae8fc;strokeColor=#6c8ebf;" vertex="1" parent="O9LADpIzNfBdCZO4euZ6-2">
          <mxGeometry x="35" y="80" width="10" height="100" as="geometry" />
        </mxCell>
        <mxCell id="eJAYvT8_J5vv1c-CHtFm-17" value="" style="html=1;points=[[0,0,0,0,5],[0,1,0,0,-5],[1,0,0,0,5],[1,1,0,0,-5]];perimeter=orthogonalPerimeter;outlineConnect=0;targetShapes=umlLifeline;portConstraint=eastwest;newEdgeStyle={&quot;curved&quot;:0,&quot;rounded&quot;:0};fillColor=#d5e8d4;strokeColor=#82b366;" vertex="1" parent="O9LADpIzNfBdCZO4euZ6-2">
          <mxGeometry x="35" y="200" width="10" height="110" as="geometry" />
        </mxCell>
        <mxCell id="O9LADpIzNfBdCZO4euZ6-3" value="Slots Management" style="shape=umlLifeline;perimeter=lifelinePerimeter;whiteSpace=wrap;html=1;container=1;dropTarget=0;collapsible=0;recursiveResize=0;outlineConnect=0;portConstraint=eastwest;newEdgeStyle={&quot;curved&quot;:0,&quot;rounded&quot;:0};" vertex="1" parent="1">
          <mxGeometry x="400" y="80" width="80" height="920" as="geometry" />
        </mxCell>
        <mxCell id="eJAYvT8_J5vv1c-CHtFm-27" value="" style="html=1;points=[[0,0,0,0,5],[0,1,0,0,-5],[1,0,0,0,5],[1,1,0,0,-5]];perimeter=orthogonalPerimeter;outlineConnect=0;targetShapes=umlLifeline;portConstraint=eastwest;newEdgeStyle={&quot;curved&quot;:0,&quot;rounded&quot;:0};fillColor=#ffe6cc;strokeColor=#d79b00;" vertex="1" parent="O9LADpIzNfBdCZO4euZ6-3">
          <mxGeometry x="35" y="340" width="10" height="120" as="geometry" />
        </mxCell>
        <mxCell id="eJAYvT8_J5vv1c-CHtFm-36" value="" style="html=1;points=[[0,0,0,0,5],[0,1,0,0,-5],[1,0,0,0,5],[1,1,0,0,-5]];perimeter=orthogonalPerimeter;outlineConnect=0;targetShapes=umlLifeline;portConstraint=eastwest;newEdgeStyle={&quot;curved&quot;:0,&quot;rounded&quot;:0};fillColor=#fff2cc;strokeColor=#d6b656;" vertex="1" parent="O9LADpIzNfBdCZO4euZ6-3">
          <mxGeometry x="35" y="490" width="10" height="110" as="geometry" />
        </mxCell>
        <mxCell id="O9LADpIzNfBdCZO4euZ6-4" value="Bookings Management" style="shape=umlLifeline;perimeter=lifelinePerimeter;whiteSpace=wrap;html=1;container=1;dropTarget=0;collapsible=0;recursiveResize=0;outlineConnect=0;portConstraint=eastwest;newEdgeStyle={&quot;curved&quot;:0,&quot;rounded&quot;:0};" vertex="1" parent="1">
          <mxGeometry x="560" y="80" width="80" height="920" as="geometry" />
        </mxCell>
        <mxCell id="eJAYvT8_J5vv1c-CHtFm-47" value="" style="html=1;outlineConnect=0;targetShapes=umlLifeline;portConstraint=eastwest;newEdgeStyle={&quot;curved&quot;:0,&quot;rounded&quot;:0};fillColor=#e1d5e7;strokeColor=#9673a6;points=[[0,0,0,0,5],[0,1,0,0,-5],[1,0,0,0,5],[1,1,0,0,-5]];perimeter=orthogonalPerimeter;" vertex="1" parent="O9LADpIzNfBdCZO4euZ6-4">
          <mxGeometry x="35" y="630" width="10" height="240" as="geometry" />
        </mxCell>
        <mxCell id="eJAYvT8_J5vv1c-CHtFm-59" value="" style="html=1;points=[[0,0,0,0,5],[0,1,0,0,-5],[1,0,0,0,5],[1,1,0,0,-5]];perimeter=orthogonalPerimeter;outlineConnect=0;targetShapes=umlLifeline;portConstraint=eastwest;newEdgeStyle={&quot;curved&quot;:0,&quot;rounded&quot;:0};fillColor=#f8cecc;strokeColor=#b85450;" vertex="1" parent="O9LADpIzNfBdCZO4euZ6-4">
          <mxGeometry x="40" y="770" width="10" height="40" as="geometry" />
        </mxCell>
        <mxCell id="eJAYvT8_J5vv1c-CHtFm-60" value="MAKE PAYMENT" style="html=1;align=left;spacingLeft=2;endArrow=block;rounded=0;edgeStyle=orthogonalEdgeStyle;curved=0;rounded=0;" edge="1" target="eJAYvT8_J5vv1c-CHtFm-59" parent="O9LADpIzNfBdCZO4euZ6-4">
          <mxGeometry relative="1" as="geometry">
            <mxPoint x="45" y="750" as="sourcePoint" />
            <Array as="points">
              <mxPoint x="75" y="780" />
            </Array>
          </mxGeometry>
        </mxCell>
        <mxCell id="O9LADpIzNfBdCZO4euZ6-5" value="Payment Transactions" style="shape=umlLifeline;perimeter=lifelinePerimeter;whiteSpace=wrap;html=1;container=1;dropTarget=0;collapsible=0;recursiveResize=0;outlineConnect=0;portConstraint=eastwest;newEdgeStyle={&quot;curved&quot;:0,&quot;rounded&quot;:0};" vertex="1" parent="1">
          <mxGeometry x="720" y="80" width="80" height="920" as="geometry" />
        </mxCell>
        <mxCell id="eJAYvT8_J5vv1c-CHtFm-56" value="" style="html=1;points=[[0,0,0,0,5],[0,1,0,0,-5],[1,0,0,0,5],[1,1,0,0,-5]];perimeter=orthogonalPerimeter;outlineConnect=0;targetShapes=umlLifeline;portConstraint=eastwest;newEdgeStyle={&quot;curved&quot;:0,&quot;rounded&quot;:0};fillColor=#e1d5e7;strokeColor=#9673a6;" vertex="1" parent="O9LADpIzNfBdCZO4euZ6-5">
          <mxGeometry x="35" y="830" width="10" height="33" as="geometry" />
        </mxCell>
        <mxCell id="O9LADpIzNfBdCZO4euZ6-6" value="Session Management" style="shape=umlLifeline;perimeter=lifelinePerimeter;whiteSpace=wrap;html=1;container=1;dropTarget=0;collapsible=0;recursiveResize=0;outlineConnect=0;portConstraint=eastwest;newEdgeStyle={&quot;curved&quot;:0,&quot;rounded&quot;:0};" vertex="1" parent="1">
          <mxGeometry x="880" y="80" width="80" height="920" as="geometry" />
        </mxCell>
        <mxCell id="eJAYvT8_J5vv1c-CHtFm-8" value="" style="html=1;points=[[0,0,0,0,5],[0,1,0,0,-5],[1,0,0,0,5],[1,1,0,0,-5]];perimeter=orthogonalPerimeter;outlineConnect=0;targetShapes=umlLifeline;portConstraint=eastwest;newEdgeStyle={&quot;curved&quot;:0,&quot;rounded&quot;:0};fillColor=#dae8fc;strokeColor=#6c8ebf;" vertex="1" parent="O9LADpIzNfBdCZO4euZ6-6">
          <mxGeometry x="35" y="70" width="10" height="32" as="geometry" />
        </mxCell>
        <mxCell id="eJAYvT8_J5vv1c-CHtFm-21" value="" style="html=1;points=[[0,0,0,0,5],[0,1,0,0,-5],[1,0,0,0,5],[1,1,0,0,-5]];perimeter=orthogonalPerimeter;outlineConnect=0;targetShapes=umlLifeline;portConstraint=eastwest;newEdgeStyle={&quot;curved&quot;:0,&quot;rounded&quot;:0};fillColor=#d5e8d4;strokeColor=#82b366;" vertex="1" parent="O9LADpIzNfBdCZO4euZ6-6">
          <mxGeometry x="35" y="210" width="10" height="30" as="geometry" />
        </mxCell>
        <mxCell id="eJAYvT8_J5vv1c-CHtFm-30" value="" style="html=1;points=[[0,0,0,0,5],[0,1,0,0,-5],[1,0,0,0,5],[1,1,0,0,-5]];perimeter=orthogonalPerimeter;outlineConnect=0;targetShapes=umlLifeline;portConstraint=eastwest;newEdgeStyle={&quot;curved&quot;:0,&quot;rounded&quot;:0};fillColor=#ffe6cc;strokeColor=#d79b00;" vertex="1" parent="O9LADpIzNfBdCZO4euZ6-6">
          <mxGeometry x="35" y="350" width="10" height="35" as="geometry" />
        </mxCell>
        <mxCell id="eJAYvT8_J5vv1c-CHtFm-41" value="" style="html=1;points=[[0,0,0,0,5],[0,1,0,0,-5],[1,0,0,0,5],[1,1,0,0,-5]];perimeter=orthogonalPerimeter;outlineConnect=0;targetShapes=umlLifeline;portConstraint=eastwest;newEdgeStyle={&quot;curved&quot;:0,&quot;rounded&quot;:0};fillColor=#fff2cc;strokeColor=#d6b656;" vertex="1" parent="O9LADpIzNfBdCZO4euZ6-6">
          <mxGeometry x="35" y="500" width="10" height="30" as="geometry" />
        </mxCell>
        <mxCell id="eJAYvT8_J5vv1c-CHtFm-50" value="" style="html=1;points=[[0,0,0,0,5],[0,1,0,0,-5],[1,0,0,0,5],[1,1,0,0,-5]];perimeter=orthogonalPerimeter;outlineConnect=0;targetShapes=umlLifeline;portConstraint=eastwest;newEdgeStyle={&quot;curved&quot;:0,&quot;rounded&quot;:0};fillColor=#e1d5e7;strokeColor=#9673a6;" vertex="1" parent="O9LADpIzNfBdCZO4euZ6-6">
          <mxGeometry x="35" y="640" width="10" height="30" as="geometry" />
        </mxCell>
        <mxCell id="O9LADpIzNfBdCZO4euZ6-7" value="Database" style="shape=umlLifeline;perimeter=lifelinePerimeter;whiteSpace=wrap;html=1;container=1;dropTarget=0;collapsible=0;recursiveResize=0;outlineConnect=0;portConstraint=eastwest;newEdgeStyle={&quot;curved&quot;:0,&quot;rounded&quot;:0};participant=umlEntity;size=80;" vertex="1" parent="1">
          <mxGeometry x="1040" y="40" width="80" height="960" as="geometry" />
        </mxCell>
        <mxCell id="eJAYvT8_J5vv1c-CHtFm-14" value="" style="html=1;points=[[0,0,0,0,5],[0,1,0,0,-5],[1,0,0,0,5],[1,1,0,0,-5]];perimeter=orthogonalPerimeter;outlineConnect=0;targetShapes=umlLifeline;portConstraint=eastwest;newEdgeStyle={&quot;curved&quot;:0,&quot;rounded&quot;:0};fillColor=#dae8fc;strokeColor=#6c8ebf;" vertex="1" parent="O9LADpIzNfBdCZO4euZ6-7">
          <mxGeometry x="35" y="170" width="10" height="30" as="geometry" />
        </mxCell>
        <mxCell id="eJAYvT8_J5vv1c-CHtFm-24" value="" style="html=1;points=[[0,0,0,0,5],[0,1,0,0,-5],[1,0,0,0,5],[1,1,0,0,-5]];perimeter=orthogonalPerimeter;outlineConnect=0;targetShapes=umlLifeline;portConstraint=eastwest;newEdgeStyle={&quot;curved&quot;:0,&quot;rounded&quot;:0};fillColor=#d5e8d4;strokeColor=#82b366;" vertex="1" parent="O9LADpIzNfBdCZO4euZ6-7">
          <mxGeometry x="35" y="309" width="10" height="30" as="geometry" />
        </mxCell>
        <mxCell id="eJAYvT8_J5vv1c-CHtFm-33" value="" style="html=1;points=[[0,0,0,0,5],[0,1,0,0,-5],[1,0,0,0,5],[1,1,0,0,-5]];perimeter=orthogonalPerimeter;outlineConnect=0;targetShapes=umlLifeline;portConstraint=eastwest;newEdgeStyle={&quot;curved&quot;:0,&quot;rounded&quot;:0};fillColor=#ffe6cc;strokeColor=#d79b00;" vertex="1" parent="O9LADpIzNfBdCZO4euZ6-7">
          <mxGeometry x="35" y="450" width="10" height="30" as="geometry" />
        </mxCell>
        <mxCell id="eJAYvT8_J5vv1c-CHtFm-44" value="" style="html=1;points=[[0,0,0,0,5],[0,1,0,0,-5],[1,0,0,0,5],[1,1,0,0,-5]];perimeter=orthogonalPerimeter;outlineConnect=0;targetShapes=umlLifeline;portConstraint=eastwest;newEdgeStyle={&quot;curved&quot;:0,&quot;rounded&quot;:0};fillColor=#fff2cc;strokeColor=#d6b656;" vertex="1" parent="O9LADpIzNfBdCZO4euZ6-7">
          <mxGeometry x="35" y="590" width="10" height="30" as="geometry" />
        </mxCell>
        <mxCell id="eJAYvT8_J5vv1c-CHtFm-53" value="" style="html=1;points=[[0,0,0,0,5],[0,1,0,0,-5],[1,0,0,0,5],[1,1,0,0,-5]];perimeter=orthogonalPerimeter;outlineConnect=0;targetShapes=umlLifeline;portConstraint=eastwest;newEdgeStyle={&quot;curved&quot;:0,&quot;rounded&quot;:0};fillColor=#e1d5e7;strokeColor=#9673a6;" vertex="1" parent="O9LADpIzNfBdCZO4euZ6-7">
          <mxGeometry x="35" y="731" width="10" height="30" as="geometry" />
        </mxCell>
        <mxCell id="eJAYvT8_J5vv1c-CHtFm-5" value="getVenues()" style="html=1;verticalAlign=bottom;endArrow=block;curved=0;rounded=0;entryX=0;entryY=0;entryDx=0;entryDy=5;" edge="1" target="eJAYvT8_J5vv1c-CHtFm-4" parent="1" source="O9LADpIzNfBdCZO4euZ6-1">
          <mxGeometry relative="1" as="geometry">
            <mxPoint x="205" y="165" as="sourcePoint" />
          </mxGeometry>
        </mxCell>
        <mxCell id="eJAYvT8_J5vv1c-CHtFm-6" value="return" style="html=1;verticalAlign=bottom;endArrow=open;dashed=1;endSize=8;curved=0;rounded=0;exitX=0;exitY=1;exitDx=0;exitDy=-5;" edge="1" source="eJAYvT8_J5vv1c-CHtFm-4" parent="1" target="O9LADpIzNfBdCZO4euZ6-1">
          <mxGeometry relative="1" as="geometry">
            <mxPoint x="205" y="235" as="targetPoint" />
          </mxGeometry>
        </mxCell>
        <mxCell id="eJAYvT8_J5vv1c-CHtFm-9" value="validateSession()" style="html=1;verticalAlign=bottom;endArrow=block;curved=0;rounded=0;entryX=0;entryY=0;entryDx=0;entryDy=5;" edge="1" target="eJAYvT8_J5vv1c-CHtFm-8" parent="1" source="O9LADpIzNfBdCZO4euZ6-2">
          <mxGeometry relative="1" as="geometry">
            <mxPoint x="365" y="173" as="sourcePoint" />
          </mxGeometry>
        </mxCell>
        <mxCell id="eJAYvT8_J5vv1c-CHtFm-10" value="return" style="html=1;verticalAlign=bottom;endArrow=open;dashed=1;endSize=8;curved=0;rounded=0;exitX=0;exitY=1;exitDx=0;exitDy=-5;" edge="1" source="eJAYvT8_J5vv1c-CHtFm-8" parent="1" target="O9LADpIzNfBdCZO4euZ6-2">
          <mxGeometry relative="1" as="geometry">
            <mxPoint x="365" y="243" as="targetPoint" />
          </mxGeometry>
        </mxCell>
        <mxCell id="eJAYvT8_J5vv1c-CHtFm-16" value="return" style="html=1;verticalAlign=bottom;endArrow=open;dashed=1;endSize=8;curved=0;rounded=0;exitX=0;exitY=1;exitDx=0;exitDy=-5;" edge="1" source="eJAYvT8_J5vv1c-CHtFm-14" parent="1" target="O9LADpIzNfBdCZO4euZ6-2">
          <mxGeometry relative="1" as="geometry">
            <mxPoint x="1005" y="285" as="targetPoint" />
          </mxGeometry>
        </mxCell>
        <mxCell id="eJAYvT8_J5vv1c-CHtFm-15" value="getVenues" style="html=1;verticalAlign=bottom;endArrow=block;curved=0;rounded=0;entryX=0;entryY=0;entryDx=0;entryDy=5;" edge="1" target="eJAYvT8_J5vv1c-CHtFm-14" parent="1" source="O9LADpIzNfBdCZO4euZ6-2">
          <mxGeometry relative="1" as="geometry">
            <mxPoint x="1005" y="215" as="sourcePoint" />
          </mxGeometry>
        </mxCell>
        <mxCell id="eJAYvT8_J5vv1c-CHtFm-18" value="getVenueDetails()" style="html=1;verticalAlign=bottom;endArrow=block;curved=0;rounded=0;entryX=0;entryY=0;entryDx=0;entryDy=5;" edge="1" target="eJAYvT8_J5vv1c-CHtFm-17" parent="1" source="O9LADpIzNfBdCZO4euZ6-1">
          <mxGeometry relative="1" as="geometry">
            <mxPoint x="205" y="285" as="sourcePoint" />
          </mxGeometry>
        </mxCell>
        <mxCell id="eJAYvT8_J5vv1c-CHtFm-19" value="return" style="html=1;verticalAlign=bottom;endArrow=open;dashed=1;endSize=8;curved=0;rounded=0;exitX=0;exitY=1;exitDx=0;exitDy=-5;" edge="1" source="eJAYvT8_J5vv1c-CHtFm-17" parent="1" target="O9LADpIzNfBdCZO4euZ6-1">
          <mxGeometry relative="1" as="geometry">
            <mxPoint x="205" y="355" as="targetPoint" />
          </mxGeometry>
        </mxCell>
        <mxCell id="eJAYvT8_J5vv1c-CHtFm-22" value="validateSession()" style="html=1;verticalAlign=bottom;endArrow=block;curved=0;rounded=0;entryX=0;entryY=0;entryDx=0;entryDy=5;" edge="1" target="eJAYvT8_J5vv1c-CHtFm-21" parent="1" source="O9LADpIzNfBdCZO4euZ6-2">
          <mxGeometry relative="1" as="geometry">
            <mxPoint x="365" y="295" as="sourcePoint" />
          </mxGeometry>
        </mxCell>
        <mxCell id="eJAYvT8_J5vv1c-CHtFm-23" value="return" style="html=1;verticalAlign=bottom;endArrow=open;dashed=1;endSize=8;curved=0;rounded=0;exitX=0;exitY=1;exitDx=0;exitDy=-5;" edge="1" source="eJAYvT8_J5vv1c-CHtFm-21" parent="1" target="O9LADpIzNfBdCZO4euZ6-2">
          <mxGeometry relative="1" as="geometry">
            <mxPoint x="365" y="365" as="targetPoint" />
          </mxGeometry>
        </mxCell>
        <mxCell id="eJAYvT8_J5vv1c-CHtFm-25" value="getVenueDetails" style="html=1;verticalAlign=bottom;endArrow=block;curved=0;rounded=0;entryX=0;entryY=0;entryDx=0;entryDy=5;" edge="1" target="eJAYvT8_J5vv1c-CHtFm-24" parent="1" source="eJAYvT8_J5vv1c-CHtFm-17">
          <mxGeometry relative="1" as="geometry">
            <mxPoint x="279.07142857142867" y="332" as="sourcePoint" />
          </mxGeometry>
        </mxCell>
        <mxCell id="eJAYvT8_J5vv1c-CHtFm-26" value="return" style="html=1;verticalAlign=bottom;endArrow=open;dashed=1;endSize=8;curved=0;rounded=0;exitX=0;exitY=1;exitDx=0;exitDy=-5;" edge="1" source="eJAYvT8_J5vv1c-CHtFm-24" parent="1" target="O9LADpIzNfBdCZO4euZ6-2">
          <mxGeometry relative="1" as="geometry">
            <mxPoint x="279.07142857142867" y="352" as="targetPoint" />
          </mxGeometry>
        </mxCell>
        <mxCell id="eJAYvT8_J5vv1c-CHtFm-28" value="fetchSlots()" style="html=1;verticalAlign=bottom;endArrow=block;curved=0;rounded=0;entryX=0;entryY=0;entryDx=0;entryDy=5;" edge="1" target="eJAYvT8_J5vv1c-CHtFm-27" parent="1" source="O9LADpIzNfBdCZO4euZ6-1">
          <mxGeometry relative="1" as="geometry">
            <mxPoint x="365" y="415" as="sourcePoint" />
          </mxGeometry>
        </mxCell>
        <mxCell id="eJAYvT8_J5vv1c-CHtFm-29" value="return" style="html=1;verticalAlign=bottom;endArrow=open;dashed=1;endSize=8;curved=0;rounded=0;exitX=0;exitY=1;exitDx=0;exitDy=-5;" edge="1" source="eJAYvT8_J5vv1c-CHtFm-27" parent="1" target="O9LADpIzNfBdCZO4euZ6-1">
          <mxGeometry relative="1" as="geometry">
            <mxPoint x="365" y="485" as="targetPoint" />
          </mxGeometry>
        </mxCell>
        <mxCell id="eJAYvT8_J5vv1c-CHtFm-31" value="validateSession()" style="html=1;verticalAlign=bottom;endArrow=block;curved=0;rounded=0;entryX=0;entryY=0;entryDx=0;entryDy=5;" edge="1" target="eJAYvT8_J5vv1c-CHtFm-30" parent="1" source="O9LADpIzNfBdCZO4euZ6-3">
          <mxGeometry relative="1" as="geometry">
            <mxPoint x="845" y="435" as="sourcePoint" />
          </mxGeometry>
        </mxCell>
        <mxCell id="eJAYvT8_J5vv1c-CHtFm-32" value="return" style="html=1;verticalAlign=bottom;endArrow=open;dashed=1;endSize=8;curved=0;rounded=0;" edge="1" parent="1">
          <mxGeometry relative="1" as="geometry">
            <mxPoint x="439.07142857142844" y="457" as="targetPoint" />
            <mxPoint x="910" y="457" as="sourcePoint" />
          </mxGeometry>
        </mxCell>
        <mxCell id="eJAYvT8_J5vv1c-CHtFm-34" value="fetchSlots" style="html=1;verticalAlign=bottom;endArrow=block;curved=0;rounded=0;entryX=0;entryY=0;entryDx=0;entryDy=5;" edge="1" target="eJAYvT8_J5vv1c-CHtFm-33" parent="1" source="O9LADpIzNfBdCZO4euZ6-3">
          <mxGeometry relative="1" as="geometry">
            <mxPoint x="1005" y="485" as="sourcePoint" />
          </mxGeometry>
        </mxCell>
        <mxCell id="eJAYvT8_J5vv1c-CHtFm-35" value="return" style="html=1;verticalAlign=bottom;endArrow=open;dashed=1;endSize=8;curved=0;rounded=0;exitX=0;exitY=1;exitDx=0;exitDy=-5;" edge="1" source="eJAYvT8_J5vv1c-CHtFm-33" parent="1" target="O9LADpIzNfBdCZO4euZ6-3">
          <mxGeometry relative="1" as="geometry">
            <mxPoint x="1005" y="555" as="targetPoint" />
          </mxGeometry>
        </mxCell>
        <mxCell id="eJAYvT8_J5vv1c-CHtFm-37" value="getSlotDetails()" style="html=1;verticalAlign=bottom;endArrow=block;curved=0;rounded=0;entryX=0;entryY=0;entryDx=0;entryDy=5;" edge="1" target="eJAYvT8_J5vv1c-CHtFm-36" parent="1" source="O9LADpIzNfBdCZO4euZ6-1">
          <mxGeometry relative="1" as="geometry">
            <mxPoint x="365" y="575" as="sourcePoint" />
          </mxGeometry>
        </mxCell>
        <mxCell id="eJAYvT8_J5vv1c-CHtFm-38" value="return" style="html=1;verticalAlign=bottom;endArrow=open;dashed=1;endSize=8;curved=0;rounded=0;exitX=0;exitY=1;exitDx=0;exitDy=-5;" edge="1" source="eJAYvT8_J5vv1c-CHtFm-36" parent="1" target="O9LADpIzNfBdCZO4euZ6-1">
          <mxGeometry relative="1" as="geometry">
            <mxPoint x="365" y="645" as="targetPoint" />
          </mxGeometry>
        </mxCell>
        <mxCell id="eJAYvT8_J5vv1c-CHtFm-42" value="validateSession()" style="html=1;verticalAlign=bottom;endArrow=block;curved=0;rounded=0;entryX=0;entryY=0;entryDx=0;entryDy=5;" edge="1" target="eJAYvT8_J5vv1c-CHtFm-41" parent="1">
          <mxGeometry relative="1" as="geometry">
            <mxPoint x="439.07142857142844" y="585" as="sourcePoint" />
          </mxGeometry>
        </mxCell>
        <mxCell id="eJAYvT8_J5vv1c-CHtFm-43" value="return" style="html=1;verticalAlign=bottom;endArrow=open;dashed=1;endSize=8;curved=0;rounded=0;" edge="1" parent="1">
          <mxGeometry relative="1" as="geometry">
            <mxPoint x="439.07142857142844" y="604" as="targetPoint" />
            <mxPoint x="915" y="604" as="sourcePoint" />
          </mxGeometry>
        </mxCell>
        <mxCell id="eJAYvT8_J5vv1c-CHtFm-45" value="getSlotDetails" style="html=1;verticalAlign=bottom;endArrow=block;curved=0;rounded=0;entryX=0;entryY=0;entryDx=0;entryDy=5;" edge="1" target="eJAYvT8_J5vv1c-CHtFm-44" parent="1" source="O9LADpIzNfBdCZO4euZ6-3">
          <mxGeometry relative="1" as="geometry">
            <mxPoint x="1005" y="635" as="sourcePoint" />
          </mxGeometry>
        </mxCell>
        <mxCell id="eJAYvT8_J5vv1c-CHtFm-46" value="return" style="html=1;verticalAlign=bottom;endArrow=open;dashed=1;endSize=8;curved=0;rounded=0;exitX=0;exitY=1;exitDx=0;exitDy=-5;" edge="1" source="eJAYvT8_J5vv1c-CHtFm-44" parent="1" target="O9LADpIzNfBdCZO4euZ6-3">
          <mxGeometry relative="1" as="geometry">
            <mxPoint x="1005" y="705" as="targetPoint" />
          </mxGeometry>
        </mxCell>
        <mxCell id="eJAYvT8_J5vv1c-CHtFm-48" value="createBooking()" style="html=1;verticalAlign=bottom;endArrow=block;curved=0;rounded=0;entryX=0;entryY=0;entryDx=0;entryDy=5;" edge="1" target="eJAYvT8_J5vv1c-CHtFm-47" parent="1" source="O9LADpIzNfBdCZO4euZ6-1">
          <mxGeometry relative="1" as="geometry">
            <mxPoint x="525" y="715" as="sourcePoint" />
          </mxGeometry>
        </mxCell>
        <mxCell id="eJAYvT8_J5vv1c-CHtFm-49" value="return" style="html=1;verticalAlign=bottom;endArrow=open;dashed=1;endSize=8;curved=0;rounded=0;exitX=0;exitY=1;exitDx=0;exitDy=-5;" edge="1" source="eJAYvT8_J5vv1c-CHtFm-47" parent="1" target="O9LADpIzNfBdCZO4euZ6-1">
          <mxGeometry relative="1" as="geometry">
            <mxPoint x="525" y="785" as="targetPoint" />
          </mxGeometry>
        </mxCell>
        <mxCell id="eJAYvT8_J5vv1c-CHtFm-51" value="validateSession()" style="html=1;verticalAlign=bottom;endArrow=block;curved=0;rounded=0;entryX=0;entryY=0;entryDx=0;entryDy=5;" edge="1" target="eJAYvT8_J5vv1c-CHtFm-50" parent="1" source="O9LADpIzNfBdCZO4euZ6-4">
          <mxGeometry relative="1" as="geometry">
            <mxPoint x="710" y="755" as="sourcePoint" />
          </mxGeometry>
        </mxCell>
        <mxCell id="eJAYvT8_J5vv1c-CHtFm-52" value="return" style="html=1;verticalAlign=bottom;endArrow=open;dashed=1;endSize=8;curved=0;rounded=0;exitX=0;exitY=1;exitDx=0;exitDy=-5;" edge="1" source="eJAYvT8_J5vv1c-CHtFm-50" parent="1" target="O9LADpIzNfBdCZO4euZ6-4">
          <mxGeometry relative="1" as="geometry">
            <mxPoint x="710" y="825" as="targetPoint" />
          </mxGeometry>
        </mxCell>
        <mxCell id="eJAYvT8_J5vv1c-CHtFm-54" value="createBooking" style="html=1;verticalAlign=bottom;endArrow=block;curved=0;rounded=0;entryX=0;entryY=0;entryDx=0;entryDy=5;" edge="1" target="eJAYvT8_J5vv1c-CHtFm-53" parent="1" source="O9LADpIzNfBdCZO4euZ6-4">
          <mxGeometry relative="1" as="geometry">
            <mxPoint x="599.0714285714284" y="908" as="sourcePoint" />
          </mxGeometry>
        </mxCell>
        <mxCell id="eJAYvT8_J5vv1c-CHtFm-55" value="return" style="html=1;verticalAlign=bottom;endArrow=open;dashed=1;endSize=8;curved=0;rounded=0;exitX=0;exitY=1;exitDx=0;exitDy=-5;" edge="1" source="eJAYvT8_J5vv1c-CHtFm-53" parent="1" target="O9LADpIzNfBdCZO4euZ6-4">
          <mxGeometry relative="1" as="geometry">
            <mxPoint x="599.0714285714284" y="928" as="targetPoint" />
          </mxGeometry>
        </mxCell>
        <mxCell id="eJAYvT8_J5vv1c-CHtFm-57" value="recordTransaction()" style="html=1;verticalAlign=bottom;endArrow=block;curved=0;rounded=0;entryX=0;entryY=0;entryDx=0;entryDy=5;" edge="1" target="eJAYvT8_J5vv1c-CHtFm-56" parent="1" source="O9LADpIzNfBdCZO4euZ6-4">
          <mxGeometry relative="1" as="geometry">
            <mxPoint x="599.0714285714284" y="847" as="sourcePoint" />
          </mxGeometry>
        </mxCell>
        <mxCell id="eJAYvT8_J5vv1c-CHtFm-58" value="return" style="html=1;verticalAlign=bottom;endArrow=open;dashed=1;endSize=8;curved=0;rounded=0;exitX=0;exitY=1;exitDx=0;exitDy=-5;" edge="1" source="eJAYvT8_J5vv1c-CHtFm-56" parent="1" target="O9LADpIzNfBdCZO4euZ6-4">
          <mxGeometry relative="1" as="geometry">
            <mxPoint x="599.0714285714284" y="877" as="targetPoint" />
          </mxGeometry>
        </mxCell>
      </root>
    </mxGraphModel>
  </diagram>
</mxfile>
